<?xml version="1.0" standalone="no"?>
<!DOCTYPE svg PUBLIC "-//W3C//DTD SVG 20010904//EN"
 "http://www.w3.org/TR/2001/REC-SVG-20010904/DTD/svg10.dtd">
<svg version="1.0" xmlns="http://www.w3.org/2000/svg"
 width="111.000000pt" height="120.000000pt" viewBox="0 0 111.000000 120.000000"
 preserveAspectRatio="xMidYMid meet">

<g transform="translate(0.000000,120.000000) scale(0.100000,-0.100000)"
fill="#000000" stroke="none">
<path d="M630 1140 l-22 -60 -28 42 c-37 55 -63 67 -138 68 -75 0 -224 -46
-304 -94 -81 -49 -93 -77 -92 -221 1 -89 8 -150 28 -238 55 -251 167 -536 227
-580 15 -11 47 -22 72 -24 58 -7 215 31 261 62 l34 23 26 -27 c26 -26 27 -26
184 -26 141 0 161 2 192 21 l35 20 -1 95 c0 52 -2 113 -4 137 l-2 43 -57 -3
c-49 -3 -56 -5 -54 -23 1 -11 5 -57 9 -101 8 -97 13 -94 -124 -96 l-90 -1
-116 108 c-101 94 -158 162 -180 215 -3 8 -4 -12 -1 -45 4 -49 24 -130 61
-246 5 -13 -11 -21 -77 -39 -55 -14 -89 -19 -99 -13 -52 31 -170 389 -205 620
-21 143 -20 215 3 237 23 20 174 82 224 91 31 6 41 3 62 -19 24 -23 26 -33 26
-108 0 -180 84 -388 213 -534 53 -59 72 -69 57 -28 -30 79 -54 264 -54 429 -1
165 0 172 30 255 17 47 34 93 38 103 7 15 2 17 -52 17 l-60 0 -22 -60z"/>
<path d="M1024 1155 c-62 -107 -100 -288 -89 -426 8 -107 30 -257 38 -265 3
-4 36 -3 72 1 l65 7 0 364 0 364 -30 0 c-24 0 -34 -8 -56 -45z"/>
</g>
</svg>
